<?xml version="1.0" encoding="utf-8"?>
<!-- Generator: Adobe Illustrator 15.0.0, SVG Export Plug-In . SVG Version: 6.00 Build 0)  -->
<!DOCTYPE svg PUBLIC "-//W3C//DTD SVG 1.1//EN" "http://www.w3.org/Graphics/SVG/1.1/DTD/svg11.dtd">
<svg xmlns="http://www.w3.org/2000/svg" viewBox="0 0 1000 1000" xml:space="preserve">
	<path fill="white" d="M500,31.25c-267.578,0-484.375,216.797-484.375,484.375S232.422,1000,500,1000
	s484.375-216.797,484.375-484.375S767.578,31.25,500,31.25z M611.523,715.039L439.258,589.844c-6.055-4.492-9.57-11.523-9.57-18.945
	V242.188c0-12.891,10.547-23.438,23.438-23.438h93.75c12.891,0,23.438,10.547,23.438,23.438v268.945l124.023,90.234
	c10.547,7.617,12.695,22.266,5.078,32.813l-55.078,75.781C636.719,720.313,622.07,722.656,611.523,715.039L611.523,715.039z"/>
</svg>
