<?xml version="1.0" encoding="utf-8"?>
<!-- Generator: Adobe Illustrator 15.0.0, SVG Export Plug-In . SVG Version: 6.00 Build 0)  -->
<!DOCTYPE svg PUBLIC "-//W3C//DTD SVG 1.1//EN" "http://www.w3.org/Graphics/SVG/1.1/DTD/svg11.dtd">
<svg xmlns="http://www.w3.org/2000/svg" viewBox="0 0 1000 1000">
	<path fill="white" d="M981.055,497.656c7.617-6.055,18.945-0.391,18.945,9.18V906.25c0,51.758-41.992,93.75-93.75,93.75H93.75
	C41.992,1000,0,958.008,0,906.25V507.031c0-9.766,11.133-15.234,18.945-9.18C62.695,531.836,120.703,575,319.922,719.727
	c41.211,30.078,110.742,93.359,180.078,92.969c69.727,0.586,140.625-64.063,180.273-92.969
	C879.492,575,937.305,531.641,981.055,497.656z M500,750c45.313,0.781,110.547-57.031,143.359-80.859
	c259.18-188.086,278.906-204.492,338.672-251.367c11.328-8.789,17.969-22.461,17.969-36.914V343.75
	c0-51.758-41.992-93.75-93.75-93.75H93.75C41.992,250,0,291.992,0,343.75v37.109c0,14.453,6.641,27.93,17.969,36.914
	c59.766,46.68,79.492,63.281,338.672,251.367C389.453,692.969,454.688,750.781,500,750L500,750z"/>
</svg>
