<?xml version="1.0" encoding="utf-8"?>
<!-- Generator: Adobe Illustrator 15.0.0, SVG Export Plug-In . SVG Version: 6.00 Build 0)  -->
<!DOCTYPE svg PUBLIC "-//W3C//DTD SVG 1.1//EN" "http://www.w3.org/Graphics/SVG/1.1/DTD/svg11.dtd">
<svg xmlns="http://www.w3.org/2000/svg" viewBox="0 0 1000 1000">
    <path fill="white" d="M906.25,309.583h-375l-125-138.083H93.75C41.973,171.5,0,217.866,0,275.063v621.375
	C0,953.634,41.973,1000,93.75,1000h812.5c51.777,0,93.75-46.366,93.75-103.563V413.146C1000,355.949,958.027,309.583,906.25,309.583
	z M744,708.348c0,12.891-10.547,23.438-23.438,23.438H494v138.281c0,20.898-25.195,31.445-40.039,16.602L230.719,662.254
	c-9.18-9.18-9.18-23.828,0-33.008l223.242-224.414C468.609,389.988,494,400.535,494,421.434V559.91h226.563
	c12.891,0,23.438,10.547,23.438,23.438V708.348z"/>
</svg>
